<?xml version="1.0" standalone="no"?>
<!DOCTYPE svg PUBLIC "-//W3C//DTD SVG 20010904//EN"
 "http://www.w3.org/TR/2001/REC-SVG-20010904/DTD/svg10.dtd">
<svg version="1.0" xmlns="http://www.w3.org/2000/svg"
 width="353.000000pt" height="353.000000pt" viewBox="0 0 353.000000 353.000000"
 preserveAspectRatio="xMidYMid meet">

<g transform="translate(0.000000,353.000000) scale(0.100000,-0.100000)"
fill="#000000" stroke="none">
<path d="M451 3489 c-184 -36 -362 -214 -400 -401 -8 -37 -11 -441 -9 -1348
l3 -1295 22 -54 c66 -162 192 -280 348 -328 57 -17 127 -18 1350 -18 1234 0
1292 1 1345 19 145 49 249 131 312 246 73 131 68 31 68 1459 0 851 -4 1301
-11 1331 -42 185 -219 356 -403 389 -73 13 -2558 13 -2625 0z m2646 -1121 c-3
-13 -16 -97 -29 -187 -20 -142 -26 -165 -43 -172 -11 -5 -202 -40 -425 -79
-360 -63 -413 -74 -477 -105 -62 -29 -73 -31 -73 -17 0 26 50 354 55 362 3 4
27 10 55 14 28 4 221 38 428 75 325 59 385 72 437 99 73 37 79 38 72 10z
m-1387 -47 c0 -4 7 -75 15 -156 9 -81 14 -149 12 -151 -2 -2 -24 4 -48 13 -40
16 -93 18 -604 18 -511 0 -564 -2 -604 -18 -24 -9 -45 -16 -47 -15 -1 2 4 62
12 133 7 72 14 142 14 158 l0 27 625 0 c348 0 625 -4 625 -9z m-480 -746 c4
-295 7 -345 23 -379 9 -21 17 -40 17 -42 0 -2 -83 -4 -183 -4 l-184 0 18 53
c16 46 18 90 19 378 0 179 3 329 7 333 4 3 68 5 142 4 l136 -3 5 -340z m1636
178 c-2 -16 -15 -101 -27 -190 -18 -125 -27 -164 -39 -167 -8 -3 -184 -34
-390 -70 -422 -74 -477 -86 -538 -122 -24 -14 -46 -24 -48 -21 -5 5 45 369 51
376 2 2 190 36 418 77 390 69 497 94 543 129 28 21 36 18 30 -12z"/>
</g>
</svg>
