<?xml version="1.0" standalone="no"?>
<!DOCTYPE svg PUBLIC "-//W3C//DTD SVG 20010904//EN"
 "http://www.w3.org/TR/2001/REC-SVG-20010904/DTD/svg10.dtd">
<svg version="1.0" xmlns="http://www.w3.org/2000/svg"
 width="1960.000000pt" height="1960.000000pt" viewBox="0 0 1960.000000 1960.000000"
 preserveAspectRatio="xMidYMid meet">

<g transform="translate(0.000000,1960.000000) scale(0.100000,-0.100000)"
fill="#000000" stroke="none">
<path d="M2915 19433 c-689 -57 -1319 -340 -1804 -808 -481 -465 -774 -1036
-878 -1715 -17 -109 -18 -485 -19 -7025 -3 -7561 -7 -7024 56 -7329 90 -432
289 -842 602 -1239 114 -145 380 -406 520 -510 474 -355 959 -522 1643 -564
193 -11 13549 -4 13695 8 210 17 401 59 665 146 606 199 1101 562 1454 1066
130 187 227 364 330 604 126 295 177 512 211 883 4 52 7 3180 6 6950 -2 6452
-3 6862 -19 6975 -76 522 -209 871 -488 1280 -486 712 -1186 1151 -1999 1254
-47 6 -105 14 -130 18 -43 7 -13763 13 -13845 6z m14291 -6160 c-3 -16 -71
-485 -151 -1043 -80 -558 -149 -1028 -153 -1044 -5 -21 -16 -32 -37 -38 -17
-4 -289 -53 -605 -108 -316 -56 -701 -123 -855 -150 -154 -27 -460 -81 -680
-119 -1796 -315 -2303 -407 -2470 -450 -232 -59 -482 -170 -761 -336 -70 -42
-130 -74 -133 -73 -4 2 63 487 149 1078 l155 1075 435 76 c239 42 723 127
1075 189 352 61 737 129 855 151 118 21 541 97 940 169 399 72 851 153 1005
181 154 28 323 62 375 76 190 49 457 168 693 309 154 93 172 99 163 57z
m-7713 -370 c6 -38 62 -601 135 -1361 l38 -393 -30 7 c-17 4 -50 15 -74 25
-227 97 -525 165 -842 190 -212 16 -5187 18 -5395 1 -296 -24 -537 -80 -825
-191 -56 -21 -100 -27 -100 -13 0 12 97 1018 135 1402 19 195 35 358 35 363 0
4 1556 7 3459 7 l3458 0 6 -37z m-2670 -2340 c4 -38 7 -673 8 -1413 1 -1646 8
-2063 39 -2204 29 -134 71 -265 137 -424 30 -73 52 -136 49 -140 -21 -20
-2030 -22 -2050 -1 -4 3 16 59 43 123 96 223 151 430 170 646 7 71 11 461 11
1010 0 492 3 1249 7 1683 l6 787 787 0 787 0 6 -67z m9097 -711 c0 -99 -118
-965 -229 -1677 -66 -421 -62 -401 -70 -412 -3 -5 -49 -17 -101 -26 -52 -10
-531 -94 -1065 -187 -533 -94 -1082 -191 -1220 -215 -137 -24 -497 -87 -800
-140 -1038 -181 -1266 -225 -1540 -300 -221 -61 -386 -135 -648 -294 -98 -59
-157 -85 -157 -68 0 2 40 282 90 623 49 340 118 818 153 1062 35 243 66 445
69 448 8 7 539 101 2508 445 1474 257 2056 365 2226 414 182 53 436 172 669
313 55 33 103 61 108 61 4 1 7 -21 7 -47z"/>
</g>
</svg>
