<?xml version="1.0" encoding="UTF-8"?>
<svg xmlns="http://www.w3.org/2000/svg" xmlns:xlink="http://www.w3.org/1999/xlink" width="100px" height="100px" viewBox="0 0 100 100" version="1.1">
<g id="surface1">
<path style=" stroke:none;fill-rule:evenodd;fill:rgb(98.431373%,98.431373%,98.431373%);fill-opacity:1;" d="M 87.902344 32.320312 C 86.613281 33.082031 85.417969 33.621094 84.324219 33.941406 C 83.703125 34.121094 67.941406 36.960938 59.941406 38.332031 L 59.777344 38.363281 L 59.746094 38.5 C 59.671875 38.859375 58.152344 49.546875 58.171875 49.566406 C 58.183594 49.582031 58.511719 49.402344 58.898438 49.171875 C 60.171875 48.414062 61.367188 47.863281 62.429688 47.546875 C 63.386719 47.265625 65.765625 46.832031 80.523438 44.253906 C 86.773438 43.164062 87.09375 43.101562 87.09375 43.003906 C 87.09375 42.972656 87.449219 40.511719 87.878906 37.527344 C 88.691406 31.910156 88.6875 31.921875 88.621094 31.921875 C 88.597656 31.921875 88.277344 32.101562 87.902344 32.320312 M 12.253906 33.867188 C 12.234375 33.929688 11.871094 37.566406 11.5 41.457031 C 11.324219 43.320312 11.242188 43.171875 12.222656 42.8125 C 13.125 42.484375 14.140625 42.210938 14.917969 42.085938 C 15.890625 41.929688 19.199219 41.898438 32.066406 41.917969 L 44.488281 41.933594 L 45.113281 42.019531 C 46.492188 42.210938 47.449219 42.445312 48.523438 42.851562 C 49.351562 43.167969 49.347656 42.8125 48.421875 34.34375 L 48.363281 33.804688 L 12.273438 33.804688 L 12.253906 33.867188 M 26.167969 49.4375 C 26.167969 51.398438 26.148438 55.554688 26.125 58.671875 L 26.089844 64.339844 L 25.976562 64.917969 C 25.832031 65.65625 25.609375 66.402344 25.339844 67.058594 C 24.996094 67.886719 24.949219 68.019531 24.992188 68.0625 C 25.046875 68.117188 35.054688 68.113281 35.382812 68.058594 C 35.683594 68.011719 35.683594 68.015625 35.425781 67.414062 C 35.113281 66.695312 34.871094 65.96875 34.714844 65.277344 L 34.574219 64.65625 L 34.53125 63.375 C 34.503906 62.671875 34.46875 58.445312 34.449219 53.984375 L 34.414062 45.871094 L 26.175781 45.871094 L 26.167969 49.4375 M 81.558594 49.898438 C 80.019531 50.84375 78.445312 51.539062 77.246094 51.800781 C 76.230469 52.023438 71.71875 52.847656 67.371094 53.605469 C 57.589844 55.308594 53.195312 56.085938 53.160156 56.121094 C 53.109375 56.171875 51.535156 67.21875 51.574219 67.261719 C 51.59375 67.285156 51.867188 67.152344 52.175781 66.964844 C 54.855469 65.355469 55.136719 65.28125 64.261719 63.6875 C 68.605469 62.929688 79.007812 61.101562 79.792969 60.960938 L 80.402344 60.847656 L 80.429688 60.714844 C 80.695312 59.441406 81.972656 50.429688 81.976562 49.832031 C 81.976562 49.648438 81.964844 49.648438 81.558594 49.898438 "/>
<path style=" stroke:none;fill-rule:evenodd;fill:rgb(17.254902%,17.254902%,17.254902%);fill-opacity:1;" d="M 11.914062 0.128906 C 5.859375 1.460938 1.195312 6.320312 0.105469 12.429688 L 0 13.027344 L 0 86.980469 L 0.105469 87.597656 C 1.144531 93.699219 6.203125 98.808594 12.277344 99.894531 L 12.878906 100 L 50.210938 99.988281 L 87.539062 99.972656 L 88.179688 99.804688 C 94.511719 98.132812 98.765625 93.71875 99.917969 87.621094 L 100.050781 86.914062 L 100.050781 49.929688 C 100.050781 26.289062 100.035156 12.875 100 12.753906 C 99.972656 12.648438 99.902344 12.296875 99.839844 11.964844 C 98.761719 6.234375 93.882812 1.285156 88.167969 0.128906 L 87.527344 0 L 49.992188 0.00390625 L 12.460938 0.0078125 L 11.914062 0.128906 M 0.0273438 50 C 0.0273438 70.417969 0.03125 78.769531 0.0390625 68.5625 C 0.046875 58.351562 0.046875 41.648438 0.0390625 31.4375 C 0.03125 21.230469 0.0273438 29.582031 0.0273438 50 M 87.902344 32.320312 C 86.613281 33.082031 85.417969 33.621094 84.324219 33.941406 C 83.703125 34.121094 67.941406 36.960938 59.941406 38.332031 L 59.777344 38.363281 L 59.746094 38.5 C 59.671875 38.859375 58.152344 49.546875 58.171875 49.566406 C 58.183594 49.582031 58.511719 49.402344 58.898438 49.171875 C 60.171875 48.414062 61.367188 47.863281 62.429688 47.546875 C 63.386719 47.265625 65.765625 46.832031 80.523438 44.253906 C 86.773438 43.164062 87.09375 43.101562 87.09375 43.003906 C 87.09375 42.972656 87.449219 40.511719 87.878906 37.527344 C 88.691406 31.910156 88.6875 31.921875 88.621094 31.921875 C 88.597656 31.921875 88.277344 32.101562 87.902344 32.320312 M 12.253906 33.867188 C 12.234375 33.929688 11.871094 37.566406 11.5 41.457031 C 11.324219 43.320312 11.242188 43.171875 12.222656 42.8125 C 13.125 42.484375 14.140625 42.210938 14.917969 42.085938 C 15.890625 41.929688 19.199219 41.898438 32.066406 41.917969 L 44.488281 41.933594 L 45.113281 42.019531 C 46.492188 42.210938 47.449219 42.445312 48.523438 42.851562 C 49.351562 43.167969 49.347656 42.8125 48.421875 34.34375 L 48.363281 33.804688 L 12.273438 33.804688 L 12.253906 33.867188 M 26.167969 49.4375 C 26.167969 51.398438 26.148438 55.554688 26.125 58.671875 L 26.089844 64.339844 L 25.976562 64.917969 C 25.832031 65.65625 25.609375 66.402344 25.339844 67.058594 C 24.996094 67.886719 24.949219 68.019531 24.992188 68.0625 C 25.046875 68.117188 35.054688 68.113281 35.382812 68.058594 C 35.683594 68.011719 35.683594 68.015625 35.425781 67.414062 C 35.113281 66.695312 34.871094 65.96875 34.714844 65.277344 L 34.574219 64.65625 L 34.53125 63.375 C 34.503906 62.671875 34.46875 58.445312 34.449219 53.984375 L 34.414062 45.871094 L 26.175781 45.871094 L 26.167969 49.4375 M 81.558594 49.898438 C 80.019531 50.84375 78.445312 51.539062 77.246094 51.800781 C 76.230469 52.023438 71.71875 52.847656 67.371094 53.605469 C 57.589844 55.308594 53.195312 56.085938 53.160156 56.121094 C 53.109375 56.171875 51.535156 67.21875 51.574219 67.261719 C 51.59375 67.285156 51.867188 67.152344 52.175781 66.964844 C 54.855469 65.355469 55.136719 65.28125 64.261719 63.6875 C 68.605469 62.929688 79.007812 61.101562 79.792969 60.960938 L 80.402344 60.847656 L 80.429688 60.714844 C 80.695312 59.441406 81.972656 50.429688 81.976562 49.832031 C 81.976562 49.648438 81.964844 49.648438 81.558594 49.898438 "/>
</g>
</svg>
