<?xml version="1.0" standalone="no"?>
<!DOCTYPE svg PUBLIC "-//W3C//DTD SVG 20010904//EN"
 "http://www.w3.org/TR/2001/REC-SVG-20010904/DTD/svg10.dtd">
<svg version="1.0" xmlns="http://www.w3.org/2000/svg"
 width="588.000000pt" height="588.000000pt" viewBox="0 0 588.000000 588.000000"
 preserveAspectRatio="xMidYMid meet">

<g transform="translate(0.000000,588.000000) scale(0.100000,-0.100000)"
fill="#000000" stroke="none">
<path d="M770 5815 c-379 -78 -656 -381 -700 -766 -8 -65 -10 -729 -8 -2164
l3 -2070 23 -80 c91 -323 327 -558 640 -638 l87 -22 2125 0 2125 0 85 23 c47
12 130 44 185 71 180 89 297 207 390 395 99 199 90 -32 90 2391 l0 2130 -23
85 c-40 152 -113 279 -226 399 -108 113 -224 182 -388 233 l-73 23 -2135 2
c-1752 1 -2147 -1 -2200 -12z m4346 -2149 c-25 -170 -49 -312 -53 -316 -4 -4
-309 -60 -678 -125 -368 -64 -699 -126 -735 -137 -68 -21 -166 -67 -212 -100
-23 -16 -28 -17 -28 -4 0 25 89 628 93 633 3 2 107 22 233 44 1162 203 1232
218 1369 299 28 16 51 26 53 22 1 -4 -18 -147 -42 -316z m-2266 202 c0 -7 11
-125 25 -263 14 -137 25 -253 25 -256 0 -3 -39 8 -87 25 -88 29 -89 29 -403
37 -411 10 -1018 10 -1295 0 -199 -8 -228 -11 -303 -35 -46 -15 -86 -26 -88
-23 -2 2 7 118 21 258 14 140 25 257 25 262 0 4 468 7 1040 7 825 0 1040 -3
1040 -12z m-798 -1230 l3 -553 26 -70 c14 -38 29 -78 33 -87 8 -17 -10 -18
-304 -18 -294 0 -312 1 -304 18 4 9 19 49 33 87 l26 70 3 553 3 552 239 0 239
0 3 -552z m2723 295 c-21 -159 -69 -490 -78 -542 l-12 -65 -75 -13 c-41 -7
-124 -22 -185 -33 -60 -10 -267 -47 -460 -80 -686 -120 -744 -133 -864 -204
-35 -20 -65 -35 -68 -32 -5 5 84 626 91 633 3 3 38 12 78 19 40 7 231 40 423
74 930 162 959 169 1075 239 36 21 68 40 73 40 4 1 5 -16 2 -36z"/>
</g>
</svg>
