<?xml version="1.0" encoding="UTF-8"?>
<svg xmlns="http://www.w3.org/2000/svg" xmlns:xlink="http://www.w3.org/1999/xlink" width="100px" height="100px" viewBox="0 0 100 100" version="1.1">
<g id="surface1">
<path style=" stroke:none;fill-rule:evenodd;fill:rgb(98.431373%,98.431373%,98.431373%);fill-opacity:1;" d="M 87.890625 32.320312 C 86.574219 33.101562 85.199219 33.71875 84.207031 33.984375 C 83.578125 34.152344 73.640625 35.949219 64.503906 37.546875 C 59.714844 38.386719 59.851562 38.363281 59.804688 38.40625 C 59.765625 38.445312 58.171875 49.421875 58.191406 49.511719 C 58.199219 49.546875 58.496094 49.398438 58.855469 49.179688 C 61.726562 47.453125 60.492188 47.734375 80.496094 44.246094 C 86.824219 43.140625 87.03125 43.101562 87.03125 43.019531 C 87.03125 42.996094 87.382812 40.539062 87.8125 37.566406 C 88.242188 34.59375 88.59375 32.121094 88.59375 32.070312 C 88.59375 31.925781 88.496094 31.957031 87.890625 32.320312 M 12.421875 33.867188 C 12.398438 33.9375 12.054688 37.4375 11.746094 40.703125 C 11.648438 41.761719 11.554688 42.730469 11.539062 42.851562 L 11.511719 43.074219 L 11.601562 43.074219 C 11.652344 43.074219 11.960938 42.96875 12.292969 42.847656 C 13.296875 42.464844 14.234375 42.21875 15.3125 42.050781 L 15.808594 41.976562 L 19.246094 41.921875 C 23.519531 41.851562 43.796875 41.902344 44.6875 41.980469 C 45.53125 42.058594 46.4375 42.210938 47.136719 42.390625 C 47.664062 42.527344 47.988281 42.632812 49.035156 43.019531 C 49.335938 43.132812 49.09375 39.40625 48.476562 34.347656 L 48.410156 33.828125 L 30.429688 33.816406 L 12.445312 33.800781 L 12.421875 33.867188 M 26.285156 52.246094 C 26.265625 55.777344 26.25 59.785156 26.25 61.15625 C 26.25 64.683594 26.144531 65.386719 25.308594 67.382812 C 25.183594 67.675781 25.101562 67.933594 25.125 67.953125 C 25.175781 68.003906 35.566406 68.007812 35.691406 67.957031 L 35.78125 67.917969 L 35.644531 67.617188 C 35.238281 66.710938 34.976562 65.925781 34.78125 65.050781 L 34.683594 64.609375 L 34.628906 63.097656 C 34.601562 62.269531 34.558594 58.050781 34.539062 53.722656 L 34.503906 45.859375 L 30.414062 45.847656 L 26.320312 45.832031 L 26.285156 52.246094 M 81.144531 50.085938 C 78.429688 51.6875 79.308594 51.484375 62.449219 54.425781 C 56.753906 55.421875 53.210938 56.046875 53.191406 56.066406 C 53.183594 56.070312 52.828125 58.523438 52.398438 61.515625 C 51.964844 64.503906 51.601562 67.007812 51.585938 67.070312 L 51.558594 67.1875 L 51.644531 67.1875 C 51.691406 67.1875 52.039062 67.003906 52.414062 66.78125 C 54.902344 65.296875 55.332031 65.179688 63.671875 63.722656 C 71.808594 62.304688 79.960938 60.871094 80.242188 60.804688 C 80.394531 60.773438 80.367188 60.894531 80.726562 58.566406 C 81.445312 53.886719 82.015625 49.628906 81.921875 49.636719 C 81.910156 49.636719 81.5625 49.839844 81.144531 50.085938 "/>
<path style=" stroke:none;fill-rule:evenodd;fill:rgb(1.568627%,20.392157%,54.509804%);fill-opacity:1;" d="M 13.019531 0.109375 C 6.398438 1.109375 1.238281 6.324219 0.222656 13.046875 L 0.128906 13.671875 L 0.128906 86.222656 L 0.199219 86.746094 C 1.105469 93.550781 6.429688 98.875 13.28125 99.820312 L 13.878906 99.90625 L 16.824219 99.949219 C 20.894531 100.007812 84.3125 100.007812 85.496094 99.949219 C 92.679688 99.582031 98.550781 94.40625 99.855469 87.289062 L 99.972656 86.640625 L 99.988281 50.261719 L 100.003906 13.878906 L 99.945312 13.359375 C 99.199219 6.542969 93.660156 0.921875 86.855469 0.078125 L 86.226562 0 L 13.671875 0.0078125 L 13.019531 0.109375 M 87.890625 32.320312 C 86.574219 33.101562 85.199219 33.71875 84.207031 33.984375 C 83.578125 34.152344 73.640625 35.949219 64.503906 37.546875 C 59.714844 38.386719 59.851562 38.363281 59.804688 38.40625 C 59.765625 38.445312 58.171875 49.421875 58.191406 49.511719 C 58.199219 49.546875 58.496094 49.398438 58.855469 49.179688 C 61.726562 47.453125 60.492188 47.734375 80.496094 44.246094 C 86.824219 43.140625 87.03125 43.101562 87.03125 43.019531 C 87.03125 42.996094 87.382812 40.539062 87.8125 37.566406 C 88.242188 34.59375 88.59375 32.121094 88.59375 32.070312 C 88.59375 31.925781 88.496094 31.957031 87.890625 32.320312 M 12.421875 33.867188 C 12.398438 33.9375 12.054688 37.4375 11.746094 40.703125 C 11.648438 41.761719 11.554688 42.730469 11.539062 42.851562 L 11.511719 43.074219 L 11.601562 43.074219 C 11.652344 43.074219 11.960938 42.96875 12.292969 42.847656 C 13.296875 42.464844 14.234375 42.21875 15.3125 42.050781 L 15.808594 41.976562 L 19.246094 41.921875 C 23.519531 41.851562 43.796875 41.902344 44.6875 41.980469 C 45.53125 42.058594 46.4375 42.210938 47.136719 42.390625 C 47.664062 42.527344 47.988281 42.632812 49.035156 43.019531 C 49.335938 43.132812 49.09375 39.40625 48.476562 34.347656 L 48.410156 33.828125 L 30.429688 33.816406 L 12.445312 33.800781 L 12.421875 33.867188 M 26.285156 52.246094 C 26.265625 55.777344 26.25 59.785156 26.25 61.15625 C 26.25 64.683594 26.144531 65.386719 25.308594 67.382812 C 25.183594 67.675781 25.101562 67.933594 25.125 67.953125 C 25.175781 68.003906 35.566406 68.007812 35.691406 67.957031 L 35.78125 67.917969 L 35.644531 67.617188 C 35.238281 66.710938 34.976562 65.925781 34.78125 65.050781 L 34.683594 64.609375 L 34.628906 63.097656 C 34.601562 62.269531 34.558594 58.050781 34.539062 53.722656 L 34.503906 45.859375 L 30.414062 45.847656 L 26.320312 45.832031 L 26.285156 52.246094 M 81.144531 50.085938 C 78.429688 51.6875 79.308594 51.484375 62.449219 54.425781 C 56.753906 55.421875 53.210938 56.046875 53.191406 56.066406 C 53.183594 56.070312 52.828125 58.523438 52.398438 61.515625 C 51.964844 64.503906 51.601562 67.007812 51.585938 67.070312 L 51.558594 67.1875 L 51.644531 67.1875 C 51.691406 67.1875 52.039062 67.003906 52.414062 66.78125 C 54.902344 65.296875 55.332031 65.179688 63.671875 63.722656 C 71.808594 62.304688 79.960938 60.871094 80.242188 60.804688 C 80.394531 60.773438 80.367188 60.894531 80.726562 58.566406 C 81.445312 53.886719 82.015625 49.628906 81.921875 49.636719 C 81.910156 49.636719 81.5625 49.839844 81.144531 50.085938 "/>
</g>
</svg>
