<?xml version="1.0" encoding="UTF-8"?>
<svg version="1.1" xmlns="http://www.w3.org/2000/svg" width="80" height="80">
<path d="M0 0 C26.4 0 52.8 0 80 0 C80 26.4 80 52.8 80 80 C53.6 80 27.2 80 0 80 C0 53.6 0 27.2 0 0 Z " fill="#010101" transform="translate(0,0)"/>
<path d="M0 0 C26.4 0 52.8 0 80 0 C80 26.4 80 52.8 80 80 C53.6 80 27.2 80 0 80 C0 53.6 0 27.2 0 0 Z M3 5 C0.6683507 8.49747394 0.74270206 9.90935247 0.7253418 14.04443359 C0.71580978 15.28937592 0.70627777 16.53431824 0.69645691 17.81698608 C0.69671837 19.17747018 0.69765557 20.53795428 0.69921875 21.8984375 C0.69533106 23.29464851 0.69099623 24.69085835 0.68623352 26.08706665 C0.6787715 29.0141381 0.67906197 31.94108895 0.68432617 34.86816406 C0.69011456 38.61304841 0.67320558 42.35743717 0.6499815 46.10223961 C0.63522305 48.98650992 0.63437541 51.87066154 0.63749123 54.75496292 C0.63697886 56.13521937 0.63175703 57.51548261 0.62167931 58.89570236 C0.60929565 60.82935541 0.61805961 62.76310861 0.62768555 64.69677734 C0.62705612 65.7958139 0.6264267 66.89485046 0.6257782 68.02719116 C1.06074054 71.4825214 1.86243782 73.25993765 4 76 C7.72155447 78.8890447 10.50794631 79.38059157 15.16381836 79.40405273 C16.38536118 79.41673691 17.60690399 79.42942108 18.86546326 79.44248962 C20.8327816 79.43808617 20.8327816 79.43808617 22.83984375 79.43359375 C24.20838174 79.43815874 25.57691744 79.44346525 26.94544983 79.44947815 C29.80934988 79.45839714 32.6729709 79.45600041 35.53686523 79.44604492 C39.19656891 79.43455911 42.85530711 79.45476534 46.514884 79.48396206 C49.34003255 79.50235986 52.16495127 79.50202456 54.99014473 79.49632454 C56.9919916 79.49609775 58.99381698 79.51296352 60.99559021 79.53013611 C69.85944962 79.59187318 69.85944962 79.59187318 77 75 C79.1582068 71.62330953 79.26777862 68.82215402 79.30639648 64.85791016 C79.32238388 63.61627106 79.33837128 62.37463196 79.35484314 61.09536743 C79.36122012 59.74326998 79.36661277 58.39116757 79.37109375 57.0390625 C79.38006545 55.64667669 79.38918739 54.25429184 79.39845276 52.86190796 C79.4149261 49.94502422 79.42263982 47.02825504 79.42553711 44.11132812 C79.43091956 40.38311521 79.46859867 36.65598652 79.51428127 32.92807961 C79.54410057 30.05233885 79.55126169 27.17685769 79.55226326 24.3009758 C79.55645596 22.92708749 79.56885229 21.55319773 79.58978081 20.17946243 C80.0018016 11.65019035 80.0018016 11.65019035 76.59008789 4.17333984 C72.77463338 0.97179625 70.90011042 0.86636647 65.97729492 0.82299805 C64.71225632 0.81016281 63.44721771 0.79732758 62.1438446 0.78410339 C60.75605663 0.77593578 59.36826423 0.76849209 57.98046875 0.76171875 C57.28245966 0.75764322 56.58445057 0.7535677 55.86528969 0.74936867 C52.1702059 0.72850778 48.47515924 0.71420666 44.7800293 0.70483398 C40.96666395 0.69377428 37.15388291 0.65938047 33.34072399 0.61966228 C30.40585763 0.59349309 27.47113037 0.5851419 24.53615761 0.58155251 C23.13075124 0.5766866 21.72535109 0.56507229 20.32005882 0.54651451 C18.3504788 0.52212349 16.38061453 0.52550785 14.41088867 0.5300293 C13.29107101 0.52416306 12.17125336 0.51829681 11.01750183 0.51225281 C7.2938979 1.11413392 5.682596 2.3972343 3 5 Z " fill="#CFCFCF" transform="translate(0,0)"/>
<path d="M0 0 C9.57 0 19.14 0 29 0 C29 2.31 29 4.62 29 7 C19.43 7 9.86 7 0 7 C0 4.69 0 2.38 0 0 Z " fill="#E4E4E4" transform="translate(10,27)"/>
<path d="M0 0 C-0.875 7.875 -0.875 7.875 -2 9 C-4.93569391 9.54179306 -7.864063 10.03866439 -10.8125 10.5 C-12.44424763 10.75892617 -14.07576709 11.01929517 -15.70703125 11.28125 C-16.4338208 11.39533203 -17.16061035 11.50941406 -17.90942383 11.62695312 C-19.96990057 11.99462899 -21.97628623 12.46817955 -24 13 C-23.67 10.36 -23.34 7.72 -23 5 C-18.47911352 3.38539768 -13.95529239 2.28093056 -9.25 1.375 C-8.57839844 1.2409375 -7.90679687 1.106875 -7.21484375 0.96875 C-2.28212691 0 -2.28212691 0 0 0 Z " fill="#F0F0F0" transform="translate(65,40)"/>
<path d="M0 0 C1 4 1 4 0 9 C-7.26 10.32 -14.52 11.64 -22 13 C-22 10.36 -22 7.72 -22 5 C-14.74 3.35 -7.48 1.7 0 0 Z " fill="#F3F3F3" transform="translate(69,26)"/>
<path d="M0 0 C3.3 0 6.6 0 10 0 C8.8553125 0.86625 8.8553125 0.86625 7.6875 1.75 C4.30781172 4.57950646 2.21640312 6.35822168 1.6257782 10.83909607 C1.62640762 11.93432083 1.62703705 13.02954559 1.62768555 14.15795898 C1.62145676 15.40282578 1.61522797 16.64769257 1.60881042 17.93028259 C1.61749977 19.28555705 1.6268179 20.6408276 1.63671875 21.99609375 C1.6372377 23.39087422 1.63671865 24.78565543 1.63520813 26.18043518 C1.63529776 29.10160259 1.64570624 32.02249349 1.66381836 34.94360352 C1.68648431 38.68053786 1.68705246 42.41706764 1.68030071 46.15405178 C1.67695223 49.03403798 1.68360767 51.91393264 1.69342995 54.79390144 C1.69726868 56.17135196 1.69843568 57.54881268 1.6968441 58.92626762 C1.69647153 60.85508393 1.71061048 62.7838864 1.7253418 64.71264648 C1.72994919 65.80866684 1.73455658 66.90468719 1.73930359 68.03392029 C2.00886314 71.10084059 2.58128451 73.27391897 4 76 C6.40952023 77.24714403 6.40952023 77.24714403 9 78 C9.99 78.66 10.98 79.32 12 80 C8.04 80 4.08 80 0 80 C0 53.6 0 27.2 0 0 Z " fill="#D5D5D5" transform="translate(0,0)"/>
<path d="M0 0 C2.31 0 4.62 0 7 0 C7.33 5.61 7.66 11.22 8 17 C5.36 17 2.72 17 0 17 C0 11.39 0 5.78 0 0 Z " fill="#F3F3F3" transform="translate(21,37)"/>
<path d="M0 0 C4 4.75 4 4.75 4 7 C4.763125 7.28875 5.52625 7.5775 6.3125 7.875 C9 9 9 9 12 11 C8.04 11 4.08 11 0 11 C0 7.37 0 3.74 0 0 Z " fill="#F2F2F2" transform="translate(0,69)"/>
<path d="M0 0 C0.33 0 0.66 0 1 0 C1 3.63 1 7.26 1 11 C-2.96 11 -6.92 11 -11 11 C-8 9 -8 9 -5.5 7.75 C-2.41197591 5.58838314 -1.44772503 3.42882243 0 0 Z " fill="#F7F7F7" transform="translate(79,69)"/>
<path d="M0 0 C3.3 0 6.6 0 10 0 C9.2575 0.515625 8.515 1.03125 7.75 1.5625 C4.46371455 4.47534392 3.01236241 7.12433906 1 11 C0.67 11 0.34 11 0 11 C0 7.37 0 3.74 0 0 Z " fill="#F9F9F9" transform="translate(0,0)"/>
<path d="M0 0 C3.3 0 6.6 0 10 0 C10 3.63 10 7.26 10 11 C9.34 10.01 8.68 9.02 8 8 C5.4693308 4.6257744 3.44319766 2.58239824 0 0 Z " fill="#FCFCFC" transform="translate(70,0)"/>
</svg>
