<?xml version="1.0" standalone="no"?>
<!DOCTYPE svg PUBLIC "-//W3C//DTD SVG 20010904//EN"
 "http://www.w3.org/TR/2001/REC-SVG-20010904/DTD/svg10.dtd">
<svg version="1.0" xmlns="http://www.w3.org/2000/svg"
 width="80.000000pt" height="80.000000pt" viewBox="0 0 80.000000 80.000000"
 preserveAspectRatio="xMidYMid meet">

<g transform="translate(0.000000,80.000000) scale(0.100000,-0.100000)"
fill="#000000" stroke="none">
<path d="M52 784 c-50 -35 -52 -51 -52 -381 0 -331 1 -338 53 -377 28 -20 39
-21 354 -21 l325 0 34 38 35 38 -3 330 -3 331 -33 29 -32 29 -328 0 c-281 0
-331 -2 -350 -16z m653 -283 c-4 -23 -7 -41 -8 -41 -1 -1 -53 -11 -114 -23
l-113 -23 0 21 c1 57 6 61 109 79 53 10 103 21 111 26 21 13 23 7 15 -39z
m-313 -3 l3 -33 -152 0 c-136 0 -153 2 -153 17 0 47 4 48 155 48 l143 0 4 -32z
m-114 -150 l3 -88 -38 0 -38 0 3 91 3 90 32 -3 32 -3 3 -87z m375 15 c-3 -21
-8 -41 -12 -44 -3 -3 -50 -14 -104 -23 -53 -9 -103 -19 -110 -22 -10 -4 -12 5
-8 38 l6 42 100 18 c55 10 104 20 110 22 21 9 24 5 18 -31z"/>
</g>
</svg>
