<?xml version="1.0" standalone="no"?>
<!DOCTYPE svg PUBLIC "-//W3C//DTD SVG 20010904//EN"
 "http://www.w3.org/TR/2001/REC-SVG-20010904/DTD/svg10.dtd">
<svg version="1.0" xmlns="http://www.w3.org/2000/svg"
 width="2552.000000pt" height="3579.000000pt" viewBox="0 0 2552.000000 3579.000000"
 preserveAspectRatio="xMidYMid meet">

<g transform="translate(0.000000,3579.000000) scale(0.100000,-0.100000)"
fill="#000000" stroke="none">
<path d="M5690 26819 c-133 -11 -317 -42 -468 -79 -731 -178 -1373 -649 -1780
-1305 -210 -339 -345 -720 -409 -1154 -16 -108 -17 -573 -21 -6956 -2 -4673 0
-6887 8 -6987 24 -348 96 -649 225 -940 134 -303 383 -664 634 -921 511 -523
1131 -794 1916 -837 131 -8 2311 -10 6975 -8 6373 3 6791 5 6890 21 376 62
784 203 1088 378 577 331 991 824 1261 1503 82 205 132 402 168 666 16 117 17
573 21 6910 2 4719 0 6837 -8 6955 -39 625 -215 1102 -590 1600 -296 394 -622
668 -1035 870 -350 172 -694 259 -1125 285 -205 12 -13596 11 -13750 -1z
m14310 -6158 c0 -10 -67 -485 -150 -1056 -82 -570 -150 -1041 -150 -1046 0
-13 -53 -24 -475 -98 -220 -39 -827 -145 -1350 -236 -2344 -410 -2738 -482
-2910 -536 -216 -67 -427 -165 -675 -313 -69 -41 -127 -73 -128 -71 -6 5 301
2124 309 2137 8 13 -30 6 1009 188 1649 288 3561 634 3679 666 200 54 472 178
701 318 111 68 140 78 140 47z m-7716 -340 c9 -14 180 -1755 174 -1771 -2 -5
-28 1 -58 12 -263 99 -450 149 -691 184 -145 21 -1214 32 -3179 32 -1667 0
-2452 -9 -2595 -32 -189 -30 -305 -59 -477 -118 -215 -73 -246 -83 -252 -77
-4 5 17 237 104 1134 33 341 63 626 65 633 3 9 703 12 3454 12 1902 0 3452 -4
3455 -9z m-2662 -3811 c4 -828 11 -1638 17 -1800 9 -262 13 -308 36 -409 31
-132 87 -300 143 -427 26 -57 37 -93 30 -99 -11 -12 -2022 -14 -2034 -3 -4 5
20 77 54 160 71 178 105 290 134 443 20 106 21 153 28 1195 4 597 8 1392 9
1768 l1 682 788 -2 787 -3 7 -1505z m9094 693 c-15 -180 -111 -876 -221 -1593
-61 -395 -70 -448 -79 -457 -3 -3 -38 -12 -78 -20 -83 -15 -2226 -392 -3063
-538 -1039 -181 -1241 -220 -1513 -290 -270 -70 -421 -135 -706 -305 -144 -85
-170 -95 -161 -57 2 12 72 492 155 1066 83 575 151 1046 153 1047 4 4 1056
189 2632 464 1170 204 1863 332 2038 376 204 51 436 154 697 308 80 47 147 86
149 86 2 0 1 -39 -3 -87z"/>
</g>
</svg>
